# xmcd
#
# Track frame offsets:
#	150
#	16530
#	33141
#	51655
#	70508
#	88208
#	105446
#	124744
#	141682
#	157823
#	183183
#	201138
#	214188
#	230386
#	247700
#
# Disc length: 3566 seconds
# Revision: 2
# Processed by: cddbd v1.5.2PL0 Copyright (c) Steve Scherf et al.
# Submitted via: dBpowerAMP V12.0
#
DISCID=c00dec0f
DTITLE=Ashton Lane - Nashville Heart
DYEAR=2015
DGENRE=Country
TTITLE0=Seventeen
TTITLE1=Looking Out For Number 1
TTITLE2=Nashville Heart
TTITLE3=Loving You Still
TTITLE4=One in a Million
TTITLE5=Breathe You In
TTITLE6=The Light That You Are
TTITLE7=One Night In California
TTITLE8=Perfect Picture
TTITLE9=When We Were Young
TTITLE10=Legacy
TTITLE11=4th Of July
TTITLE12=Coastline
TTITLE13=Moonlight Drifter
TTITLE14=One Kiss Later
EXTD=
EXTT0=
EXTT1=
EXTT2=
EXTT3=
EXTT4=
EXTT5=
EXTT6=
EXTT7=
EXTT8=
EXTT9=
EXTT10=
EXTT11=
EXTT12=
EXTT13=
EXTT14=
PLAYORDER=
